<svg xmlns="http://www.w3.org/2000/svg" width="375" viewBox="0 0 375 375" height="375" version="1.0"><path d="M 187.5 18.75 C 280.554688 18.75 356.25 94.445312 356.25 187.5 C 356.25 280.554688 280.554688 356.25 187.5 356.25 C 94.445312 356.25 18.75 280.554688 18.75 187.5 C 18.75 94.445312 94.445312 18.75 187.5 18.75 M 187.5 0 C 83.945312 0 0 83.945312 0 187.5 C 0 291.054688 83.945312 375 187.5 375 C 291.054688 375 375 291.054688 375 187.5 C 375 83.945312 291.054688 0 187.5 0 Z M 187.5 0"/><g><g><g><path d="M 21.300781 0 L 48.660156 0 C 49.914062 0 50.75 -0.835938 50.75 -2.089844 L 50.75 -54.507812 C 50.75 -55.761719 51.585938 -56.597656 52.835938 -56.597656 L 114.238281 -56.597656 C 115.492188 -56.597656 116.328125 -55.761719 116.328125 -54.507812 L 116.328125 -2.089844 C 116.328125 -0.835938 117.160156 0 118.414062 0 L 145.984375 0 C 147.234375 0 148.070312 -0.835938 148.070312 -2.089844 L 148.070312 -146.816406 C 148.070312 -148.070312 147.234375 -148.90625 145.984375 -148.90625 L 118.414062 -148.90625 C 117.160156 -148.90625 116.328125 -148.070312 116.328125 -146.816406 L 116.328125 -86.878906 C 116.328125 -85.625 115.492188 -84.792969 114.238281 -84.792969 L 52.835938 -84.792969 C 51.585938 -84.792969 50.75 -85.625 50.75 -86.878906 L 50.75 -146.816406 C 50.75 -148.070312 49.914062 -148.90625 48.660156 -148.90625 L 21.300781 -148.90625 C 20.050781 -148.90625 19.214844 -148.070312 19.214844 -146.816406 L 19.214844 -2.089844 C 19.214844 -0.835938 20.050781 0 21.300781 0 Z M 21.300781 0" transform="translate(47.883 269.625)"/></g></g></g><g><g><g><path d="M 19.214844 0 L 101.289062 0 C 102.542969 0 103.378906 -0.835938 103.378906 -2.089844 L 103.378906 -26.105469 C 103.378906 -27.359375 102.542969 -28.195312 101.289062 -28.195312 L 50.75 -28.195312 C 49.496094 -28.195312 48.660156 -29.03125 48.660156 -30.28125 L 48.660156 -146.816406 C 48.660156 -148.070312 47.824219 -148.90625 46.574219 -148.90625 L 19.214844 -148.90625 C 17.960938 -148.90625 17.125 -148.070312 17.125 -146.816406 L 17.125 -2.089844 C 17.125 -0.835938 17.960938 0 19.214844 0 Z M 19.214844 0" transform="translate(210.782 269.625)"/></g></g></g></svg>