<svg xmlns="http://www.w3.org/2000/svg" width="375" viewBox="0 0 375 375" height="375" version="1.0"><g fill="#FFF"><g><g><path d="M 3.515625 -23.21875 L 15.890625 -23.21875 L 15.890625 -22.234375 L 4.640625 -22.234375 L 4.640625 -12.453125 L 14.140625 -12.453125 L 14.140625 -11.46875 L 4.640625 -11.46875 L 4.640625 0 L 3.515625 0 Z M 3.515625 -23.21875" transform="translate(65.568 237.389)"/></g></g></g><g fill="#FFF"><g><g><path d="M 6.96875 0.421875 C 5.5625 0.421875 4.398438 0.046875 3.484375 -0.703125 C 2.566406 -1.453125 2.109375 -2.585938 2.109375 -4.109375 C 2.109375 -5.960938 2.976562 -7.378906 4.71875 -8.359375 C 6.46875 -9.347656 9.28125 -10.054688 13.15625 -10.484375 C 13.195312 -12.117188 12.910156 -13.488281 12.296875 -14.59375 C 11.691406 -15.695312 10.59375 -16.25 9 -16.25 C 7.925781 -16.25 6.910156 -16.039062 5.953125 -15.625 C 5.003906 -15.21875 4.191406 -14.742188 3.515625 -14.203125 L 2.953125 -15.046875 C 3.703125 -15.609375 4.609375 -16.113281 5.671875 -16.5625 C 6.742188 -17.007812 7.878906 -17.234375 9.078125 -17.234375 C 10.898438 -17.234375 12.207031 -16.648438 13 -15.484375 C 13.800781 -14.328125 14.203125 -12.800781 14.203125 -10.90625 L 14.203125 0 L 13.296875 0 L 13.15625 -2.25 L 13.078125 -2.25 C 10.859375 -0.46875 8.820312 0.421875 6.96875 0.421875 Z M 7.03125 -0.5625 C 8.019531 -0.5625 8.992188 -0.796875 9.953125 -1.265625 C 10.910156 -1.734375 11.976562 -2.460938 13.15625 -3.453125 L 13.15625 -9.5625 C 9.539062 -9.144531 6.984375 -8.503906 5.484375 -7.640625 C 3.984375 -6.785156 3.234375 -5.625 3.234375 -4.15625 C 3.234375 -2.9375 3.585938 -2.03125 4.296875 -1.4375 C 5.015625 -0.851562 5.925781 -0.5625 7.03125 -0.5625 Z M 7.03125 -0.5625" transform="translate(82.092 237.389)"/></g></g></g><g fill="#FFF"><g><g><path d="M 3.375 -16.8125 L 4.296875 -16.8125 L 4.4375 -14.140625 L 4.5 -14.140625 C 5.320312 -15.078125 6.203125 -15.828125 7.140625 -16.390625 C 8.078125 -16.953125 8.976562 -17.234375 9.84375 -17.234375 C 12.3125 -17.234375 13.859375 -16.0625 14.484375 -13.71875 C 16.597656 -16.0625 18.523438 -17.234375 20.265625 -17.234375 C 21.921875 -17.234375 23.164062 -16.703125 24 -15.640625 C 24.832031 -14.585938 25.25 -12.984375 25.25 -10.828125 L 25.25 0 L 24.203125 0 L 24.203125 -10.6875 C 24.203125 -12.5625 23.875 -13.957031 23.21875 -14.875 C 22.5625 -15.789062 21.550781 -16.25 20.1875 -16.25 C 19.363281 -16.25 18.519531 -15.972656 17.65625 -15.421875 C 16.789062 -14.867188 15.851562 -14.019531 14.84375 -12.875 L 14.84375 0 L 13.78125 0 L 13.78125 -10.6875 C 13.78125 -12.5625 13.453125 -13.957031 12.796875 -14.875 C 12.140625 -15.789062 11.132812 -16.25 9.78125 -16.25 C 8.1875 -16.25 6.40625 -15.125 4.4375 -12.875 L 4.4375 0 L 3.375 0 Z M 3.375 -16.8125" transform="translate(99.178 237.389)"/></g></g></g><g fill="#FFF"><g><g><path d="M 3.375 -16.8125 L 4.4375 -16.8125 L 4.4375 0 L 3.375 0 Z M 3.9375 -21.109375 C 3.601562 -21.109375 3.332031 -21.222656 3.125 -21.453125 C 2.914062 -21.691406 2.8125 -22 2.8125 -22.375 C 2.8125 -22.71875 2.914062 -23 3.125 -23.21875 C 3.332031 -23.445312 3.601562 -23.5625 3.9375 -23.5625 C 4.269531 -23.5625 4.539062 -23.445312 4.75 -23.21875 C 4.957031 -23 5.0625 -22.71875 5.0625 -22.375 C 5.0625 -22 4.957031 -21.691406 4.75 -21.453125 C 4.539062 -21.222656 4.269531 -21.109375 3.9375 -21.109375 Z M 3.9375 -21.109375" transform="translate(127.514 237.389)"/></g></g></g><g fill="#FFF"><g><g><path d="M 5.0625 0.421875 C 3.9375 0.421875 3.375 -0.328125 3.375 -1.828125 L 3.375 -25.390625 L 4.4375 -25.390625 L 4.4375 -1.625 C 4.4375 -1.269531 4.5 -1.003906 4.625 -0.828125 C 4.75 -0.648438 4.921875 -0.5625 5.140625 -0.5625 C 5.328125 -0.5625 5.535156 -0.585938 5.765625 -0.640625 L 5.984375 0.28125 C 5.609375 0.375 5.300781 0.421875 5.0625 0.421875 Z M 5.0625 0.421875" transform="translate(135.318 237.389)"/></g></g></g><g fill="#FFF"><g><g><path d="M 2.328125 7.8125 C 1.710938 7.8125 1.171875 7.691406 0.703125 7.453125 L 0.984375 6.46875 C 1.453125 6.65625 1.921875 6.75 2.390625 6.75 C 3.398438 6.75 4.28125 6.320312 5.03125 5.46875 C 5.78125 4.613281 6.398438 3.445312 6.890625 1.96875 L 7.390625 0.421875 L 0.421875 -16.8125 L 1.625 -16.8125 L 5.90625 -5.765625 L 6.40625 -4.53125 C 7.082031 -2.800781 7.550781 -1.644531 7.8125 -1.0625 L 7.953125 -1.0625 C 8.179688 -1.664062 8.378906 -2.21875 8.546875 -2.71875 C 8.710938 -3.226562 8.863281 -3.671875 9 -4.046875 C 9.070312 -4.253906 9.257812 -4.828125 9.5625 -5.765625 L 13.359375 -16.8125 L 14.484375 -16.8125 L 7.734375 2.390625 C 7.242188 3.910156 6.546875 5.191406 5.640625 6.234375 C 4.742188 7.285156 3.640625 7.8125 2.328125 7.8125 Z M 2.328125 7.8125" transform="translate(143.404 237.389)"/></g></g></g><g fill="#FFF"><g><g><path d="M 16.390625 0 L 9.84375 -10.96875 L 4.640625 -10.96875 L 4.640625 0 L 3.515625 0 L 3.515625 -23.21875 L 9.921875 -23.21875 C 14.890625 -23.21875 17.375 -21.222656 17.375 -17.234375 C 17.375 -15.398438 16.820312 -13.957031 15.71875 -12.90625 C 14.613281 -11.851562 13.078125 -11.234375 11.109375 -11.046875 L 17.734375 0 Z M 9.5 -11.953125 C 11.675781 -11.953125 13.332031 -12.390625 14.46875 -13.265625 C 15.601562 -14.148438 16.171875 -15.472656 16.171875 -17.234375 C 16.171875 -19.015625 15.613281 -20.289062 14.5 -21.0625 C 13.394531 -21.84375 11.726562 -22.234375 9.5 -22.234375 L 4.640625 -22.234375 L 4.640625 -11.953125 Z M 9.5 -11.953125" transform="translate(165.342 237.389)"/></g></g></g><g fill="#FFF"><g><g><path d="M 15.46875 -9.5 C 15.46875 -9.03125 15.445312 -8.65625 15.40625 -8.375 L 3.03125 -8.375 C 3.03125 -6.800781 3.316406 -5.421875 3.890625 -4.234375 C 4.460938 -3.054688 5.25 -2.148438 6.25 -1.515625 C 7.257812 -0.878906 8.390625 -0.5625 9.640625 -0.5625 C 11.304688 -0.5625 12.851562 -1.078125 14.28125 -2.109375 L 14.765625 -1.203125 C 13.898438 -0.679688 13.097656 -0.28125 12.359375 0 C 11.617188 0.28125 10.6875 0.421875 9.5625 0.421875 C 8.15625 0.421875 6.863281 0.0664062 5.6875 -0.640625 C 4.519531 -1.359375 3.597656 -2.378906 2.921875 -3.703125 C 2.242188 -5.035156 1.90625 -6.59375 1.90625 -8.375 C 1.90625 -10.132812 2.242188 -11.6875 2.921875 -13.03125 C 3.597656 -14.375 4.488281 -15.410156 5.59375 -16.140625 C 6.695312 -16.867188 7.878906 -17.234375 9.140625 -17.234375 C 11.109375 -17.234375 12.65625 -16.554688 13.78125 -15.203125 C 14.90625 -13.859375 15.46875 -11.957031 15.46875 -9.5 Z M 14.421875 -9.359375 C 14.421875 -11.609375 13.953125 -13.316406 13.015625 -14.484375 C 12.078125 -15.660156 10.785156 -16.25 9.140625 -16.25 C 8.160156 -16.25 7.226562 -15.988281 6.34375 -15.46875 C 5.46875 -14.957031 4.726562 -14.179688 4.125 -13.140625 C 3.53125 -12.097656 3.175781 -10.835938 3.0625 -9.359375 Z M 14.421875 -9.359375" transform="translate(184.115 237.389)"/></g></g></g><g fill="#FFF"><g><g><path d="M 7.3125 0.421875 C 6.113281 0.421875 5 0.210938 3.96875 -0.203125 C 2.9375 -0.628906 2.015625 -1.195312 1.203125 -1.90625 L 1.90625 -2.75 C 2.71875 -2.039062 3.546875 -1.5 4.390625 -1.125 C 5.234375 -0.75 6.234375 -0.5625 7.390625 -0.5625 C 8.722656 -0.5625 9.769531 -0.90625 10.53125 -1.59375 C 11.289062 -2.289062 11.671875 -3.144531 11.671875 -4.15625 C 11.671875 -5.15625 11.289062 -5.941406 10.53125 -6.515625 C 9.769531 -7.097656 8.742188 -7.625 7.453125 -8.09375 C 6.253906 -8.507812 5.296875 -8.890625 4.578125 -9.234375 C 3.867188 -9.578125 3.253906 -10.046875 2.734375 -10.640625 C 2.222656 -11.234375 1.96875 -11.976562 1.96875 -12.875 C 1.96875 -14.09375 2.4375 -15.125 3.375 -15.96875 C 4.3125 -16.8125 5.601562 -17.234375 7.25 -17.234375 C 8.0625 -17.234375 8.882812 -17.078125 9.71875 -16.765625 C 10.550781 -16.460938 11.273438 -16.054688 11.890625 -15.546875 L 11.25 -14.703125 C 10.59375 -15.191406 9.945312 -15.570312 9.3125 -15.84375 C 8.6875 -16.113281 7.972656 -16.25 7.171875 -16.25 C 5.859375 -16.25 4.847656 -15.925781 4.140625 -15.28125 C 3.441406 -14.632812 3.09375 -13.851562 3.09375 -12.9375 C 3.09375 -12.3125 3.28125 -11.78125 3.65625 -11.34375 C 4.03125 -10.90625 4.476562 -10.550781 5 -10.28125 C 5.53125 -10.019531 6.253906 -9.710938 7.171875 -9.359375 C 7.378906 -9.265625 8.070312 -9.003906 9.25 -8.578125 C 10.425781 -8.160156 11.3125 -7.585938 11.90625 -6.859375 C 12.5 -6.128906 12.796875 -5.25 12.796875 -4.21875 C 12.796875 -3.375 12.578125 -2.597656 12.140625 -1.890625 C 11.710938 -1.191406 11.082031 -0.628906 10.25 -0.203125 C 9.414062 0.210938 8.4375 0.421875 7.3125 0.421875 Z M 7.3125 0.421875" transform="translate(200.92 237.389)"/></g></g></g><g fill="#FFF"><g><g><path d="M 9.359375 0.421875 C 7.992188 0.421875 6.742188 0.0703125 5.609375 -0.625 C 4.472656 -1.332031 3.570312 -2.351562 2.90625 -3.6875 C 2.238281 -5.03125 1.90625 -6.59375 1.90625 -8.375 C 1.90625 -10.175781 2.238281 -11.75 2.90625 -13.09375 C 3.570312 -14.445312 4.472656 -15.472656 5.609375 -16.171875 C 6.742188 -16.878906 7.992188 -17.234375 9.359375 -17.234375 C 10.710938 -17.234375 11.957031 -16.878906 13.09375 -16.171875 C 14.238281 -15.472656 15.144531 -14.445312 15.8125 -13.09375 C 16.476562 -11.75 16.8125 -10.175781 16.8125 -8.375 C 16.8125 -6.59375 16.476562 -5.03125 15.8125 -3.6875 C 15.144531 -2.351562 14.238281 -1.332031 13.09375 -0.625 C 11.957031 0.0703125 10.710938 0.421875 9.359375 0.421875 Z M 9.359375 -0.5625 C 10.554688 -0.5625 11.632812 -0.890625 12.59375 -1.546875 C 13.550781 -2.203125 14.304688 -3.117188 14.859375 -4.296875 C 15.410156 -5.484375 15.6875 -6.84375 15.6875 -8.375 C 15.6875 -9.894531 15.410156 -11.253906 14.859375 -12.453125 C 14.304688 -13.648438 13.550781 -14.582031 12.59375 -15.25 C 11.632812 -15.914062 10.554688 -16.25 9.359375 -16.25 C 8.160156 -16.25 7.078125 -15.914062 6.109375 -15.25 C 5.148438 -14.582031 4.394531 -13.648438 3.84375 -12.453125 C 3.300781 -11.253906 3.03125 -9.894531 3.03125 -8.375 C 3.03125 -6.84375 3.300781 -5.484375 3.84375 -4.296875 C 4.394531 -3.117188 5.148438 -2.203125 6.109375 -1.546875 C 7.078125 -0.890625 8.160156 -0.5625 9.359375 -0.5625 Z M 9.359375 -0.5625" transform="translate(214.982 237.389)"/></g></g></g><g fill="#FFF"><g><g><path d="M 8.15625 0.421875 C 6.425781 0.421875 5.148438 -0.0976562 4.328125 -1.140625 C 3.503906 -2.179688 3.09375 -3.796875 3.09375 -5.984375 L 3.09375 -16.8125 L 4.15625 -16.8125 L 4.15625 -6.125 C 4.15625 -4.21875 4.472656 -2.8125 5.109375 -1.90625 C 5.753906 -1.007812 6.796875 -0.5625 8.234375 -0.5625 C 9.265625 -0.5625 10.210938 -0.84375 11.078125 -1.40625 C 11.941406 -1.96875 12.914062 -2.90625 14 -4.21875 L 14 -16.8125 L 15.046875 -16.8125 L 15.046875 0 L 14.140625 0 L 14 -2.890625 L 13.921875 -2.890625 C 13.015625 -1.804688 12.101562 -0.984375 11.1875 -0.421875 C 10.269531 0.140625 9.257812 0.421875 8.15625 0.421875 Z M 8.15625 0.421875" transform="translate(233.685 237.389)"/></g></g></g><g fill="#FFF"><g><g><path d="M 3.375 -16.8125 L 4.296875 -16.8125 L 4.4375 -13.640625 L 4.5 -13.640625 C 5.113281 -14.742188 5.820312 -15.617188 6.625 -16.265625 C 7.4375 -16.910156 8.320312 -17.234375 9.28125 -17.234375 C 9.894531 -17.234375 10.4375 -17.113281 10.90625 -16.875 L 10.625 -15.890625 C 10.320312 -16.015625 10.078125 -16.09375 9.890625 -16.125 C 9.703125 -16.15625 9.453125 -16.171875 9.140625 -16.171875 C 8.296875 -16.171875 7.457031 -15.804688 6.625 -15.078125 C 5.789062 -14.359375 5.0625 -13.222656 4.4375 -11.671875 L 4.4375 0 L 3.375 0 Z M 3.375 -16.8125" transform="translate(252.107 237.389)"/></g></g></g><g fill="#FFF"><g><g><path d="M 9.421875 0.421875 C 7.992188 0.421875 6.703125 0.0703125 5.546875 -0.625 C 4.398438 -1.332031 3.503906 -2.347656 2.859375 -3.671875 C 2.222656 -4.992188 1.90625 -6.5625 1.90625 -8.375 C 1.90625 -10.175781 2.242188 -11.75 2.921875 -13.09375 C 3.597656 -14.445312 4.507812 -15.472656 5.65625 -16.171875 C 6.8125 -16.878906 8.066406 -17.234375 9.421875 -17.234375 C 10.484375 -17.234375 11.398438 -17.039062 12.171875 -16.65625 C 12.941406 -16.269531 13.664062 -15.757812 14.34375 -15.125 L 13.640625 -14.34375 C 12.285156 -15.613281 10.878906 -16.25 9.421875 -16.25 C 8.222656 -16.25 7.140625 -15.914062 6.171875 -15.25 C 5.203125 -14.582031 4.4375 -13.648438 3.875 -12.453125 C 3.3125 -11.253906 3.03125 -9.894531 3.03125 -8.375 C 3.03125 -6.84375 3.289062 -5.484375 3.8125 -4.296875 C 4.34375 -3.117188 5.09375 -2.203125 6.0625 -1.546875 C 7.039062 -0.890625 8.160156 -0.5625 9.421875 -0.5625 C 11.109375 -0.5625 12.679688 -1.242188 14.140625 -2.609375 L 14.765625 -1.828125 C 13.109375 -0.328125 11.328125 0.421875 9.421875 0.421875 Z M 9.421875 0.421875" transform="translate(262.865 237.389)"/></g></g></g><g fill="#FFF"><g><g><path d="M 15.46875 -9.5 C 15.46875 -9.03125 15.445312 -8.65625 15.40625 -8.375 L 3.03125 -8.375 C 3.03125 -6.800781 3.316406 -5.421875 3.890625 -4.234375 C 4.460938 -3.054688 5.25 -2.148438 6.25 -1.515625 C 7.257812 -0.878906 8.390625 -0.5625 9.640625 -0.5625 C 11.304688 -0.5625 12.851562 -1.078125 14.28125 -2.109375 L 14.765625 -1.203125 C 13.898438 -0.679688 13.097656 -0.28125 12.359375 0 C 11.617188 0.28125 10.6875 0.421875 9.5625 0.421875 C 8.15625 0.421875 6.863281 0.0664062 5.6875 -0.640625 C 4.519531 -1.359375 3.597656 -2.378906 2.921875 -3.703125 C 2.242188 -5.035156 1.90625 -6.59375 1.90625 -8.375 C 1.90625 -10.132812 2.242188 -11.6875 2.921875 -13.03125 C 3.597656 -14.375 4.488281 -15.410156 5.59375 -16.140625 C 6.695312 -16.867188 7.878906 -17.234375 9.140625 -17.234375 C 11.109375 -17.234375 12.65625 -16.554688 13.78125 -15.203125 C 14.90625 -13.859375 15.46875 -11.957031 15.46875 -9.5 Z M 14.421875 -9.359375 C 14.421875 -11.609375 13.953125 -13.316406 13.015625 -14.484375 C 12.078125 -15.660156 10.785156 -16.25 9.140625 -16.25 C 8.160156 -16.25 7.226562 -15.988281 6.34375 -15.46875 C 5.46875 -14.957031 4.726562 -14.179688 4.125 -13.140625 C 3.53125 -12.097656 3.175781 -10.835938 3.0625 -9.359375 Z M 14.421875 -9.359375" transform="translate(278.545 237.389)"/></g></g></g><g fill="#FFF"><g><g><path d="M 7.3125 0.421875 C 6.113281 0.421875 5 0.210938 3.96875 -0.203125 C 2.9375 -0.628906 2.015625 -1.195312 1.203125 -1.90625 L 1.90625 -2.75 C 2.71875 -2.039062 3.546875 -1.5 4.390625 -1.125 C 5.234375 -0.75 6.234375 -0.5625 7.390625 -0.5625 C 8.722656 -0.5625 9.769531 -0.90625 10.53125 -1.59375 C 11.289062 -2.289062 11.671875 -3.144531 11.671875 -4.15625 C 11.671875 -5.15625 11.289062 -5.941406 10.53125 -6.515625 C 9.769531 -7.097656 8.742188 -7.625 7.453125 -8.09375 C 6.253906 -8.507812 5.296875 -8.890625 4.578125 -9.234375 C 3.867188 -9.578125 3.253906 -10.046875 2.734375 -10.640625 C 2.222656 -11.234375 1.96875 -11.976562 1.96875 -12.875 C 1.96875 -14.09375 2.4375 -15.125 3.375 -15.96875 C 4.3125 -16.8125 5.601562 -17.234375 7.25 -17.234375 C 8.0625 -17.234375 8.882812 -17.078125 9.71875 -16.765625 C 10.550781 -16.460938 11.273438 -16.054688 11.890625 -15.546875 L 11.25 -14.703125 C 10.59375 -15.191406 9.945312 -15.570312 9.3125 -15.84375 C 8.6875 -16.113281 7.972656 -16.25 7.171875 -16.25 C 5.859375 -16.25 4.847656 -15.925781 4.140625 -15.28125 C 3.441406 -14.632812 3.09375 -13.851562 3.09375 -12.9375 C 3.09375 -12.3125 3.28125 -11.78125 3.65625 -11.34375 C 4.03125 -10.90625 4.476562 -10.550781 5 -10.28125 C 5.53125 -10.019531 6.253906 -9.710938 7.171875 -9.359375 C 7.378906 -9.265625 8.070312 -9.003906 9.25 -8.578125 C 10.425781 -8.160156 11.3125 -7.585938 11.90625 -6.859375 C 12.5 -6.128906 12.796875 -5.25 12.796875 -4.21875 C 12.796875 -3.375 12.578125 -2.597656 12.140625 -1.890625 C 11.710938 -1.191406 11.082031 -0.628906 10.25 -0.203125 C 9.414062 0.210938 8.4375 0.421875 7.3125 0.421875 Z M 7.3125 0.421875" transform="translate(295.35 237.389)"/></g></g></g><g fill="#FFF"><g><g><path d="M 5.511719 0 L 12.59375 0 C 12.917969 0 13.132812 -0.214844 13.132812 -0.539062 L 13.132812 -14.109375 C 13.132812 -14.433594 13.351562 -14.648438 13.675781 -14.648438 L 29.566406 -14.648438 C 29.890625 -14.648438 30.105469 -14.433594 30.105469 -14.109375 L 30.105469 -0.539062 C 30.105469 -0.214844 30.324219 0 30.648438 0 L 37.78125 0 C 38.105469 0 38.324219 -0.214844 38.324219 -0.539062 L 38.324219 -38 C 38.324219 -38.324219 38.105469 -38.539062 37.78125 -38.539062 L 30.648438 -38.539062 C 30.324219 -38.539062 30.105469 -38.324219 30.105469 -38 L 30.105469 -22.484375 C 30.105469 -22.160156 29.890625 -21.945312 29.566406 -21.945312 L 13.675781 -21.945312 C 13.351562 -21.945312 13.132812 -22.160156 13.132812 -22.484375 L 13.132812 -38 C 13.132812 -38.324219 12.917969 -38.539062 12.59375 -38.539062 L 5.511719 -38.539062 C 5.1875 -38.539062 4.972656 -38.324219 4.972656 -38 L 4.972656 -0.539062 C 4.972656 -0.214844 5.1875 0 5.511719 0 Z M 5.511719 0" transform="translate(28.36 178.627)"/></g></g></g><g fill="#FFF"><g><g><path d="M 24.269531 0.164062 C 35.40625 0.164062 43.511719 -8.160156 43.511719 -19.296875 C 43.511719 -30.429688 35.40625 -38.703125 24.269531 -38.703125 C 13.132812 -38.703125 4.972656 -30.429688 4.972656 -19.296875 C 4.972656 -8.160156 13.132812 0.164062 24.269531 0.164062 Z M 24.269531 -7.136719 C 18.378906 -7.136719 13.132812 -11.296875 13.132812 -19.296875 C 13.132812 -27.296875 18.378906 -31.40625 24.269531 -31.40625 C 30.105469 -31.40625 35.296875 -27.296875 35.296875 -19.296875 C 35.296875 -11.296875 30.105469 -7.136719 24.269531 -7.136719 Z M 24.269531 -7.136719" transform="translate(72.786 178.627)"/></g></g></g><g fill="#FFF"><g><g><path d="M 5.511719 0 L 12.59375 0 C 12.917969 0 13.132812 -0.214844 13.132812 -0.539062 L 13.132812 -18.808594 C 13.132812 -19.296875 13.511719 -19.40625 13.785156 -19.027344 L 24.214844 -3.296875 C 24.433594 -2.972656 24.757812 -2.972656 24.972656 -3.296875 L 35.457031 -19.082031 C 35.730469 -19.457031 36.105469 -19.296875 36.105469 -18.808594 L 36.105469 -0.539062 C 36.105469 -0.214844 36.324219 0 36.648438 0 L 43.78125 0 C 44.105469 0 44.324219 -0.214844 44.324219 -0.539062 L 44.324219 -38 C 44.324219 -38.324219 44.105469 -38.539062 43.78125 -38.539062 L 39.78125 -38.539062 C 39.511719 -38.539062 39.242188 -38.484375 39.078125 -38.214844 L 24.972656 -16.214844 C 24.757812 -15.890625 24.433594 -15.890625 24.214844 -16.214844 L 10.160156 -38.214844 C 10 -38.484375 9.730469 -38.539062 9.460938 -38.539062 L 5.511719 -38.539062 C 5.1875 -38.539062 4.972656 -38.324219 4.972656 -38 L 4.972656 -0.539062 C 4.972656 -0.214844 5.1875 0 5.511719 0 Z M 5.511719 0" transform="translate(121.861 178.627)"/></g></g></g><g fill="#FFF"><g><g><path d="M 4.972656 0 L 28.160156 0 C 28.484375 0 28.703125 -0.214844 28.703125 -0.539062 L 28.703125 -6.757812 C 28.703125 -7.082031 28.484375 -7.296875 28.160156 -7.296875 L 13.132812 -7.296875 C 12.808594 -7.296875 12.59375 -7.511719 12.59375 -7.835938 L 12.59375 -14.757812 C 12.59375 -15.082031 12.808594 -15.296875 13.132812 -15.296875 L 23.566406 -15.296875 C 23.890625 -15.296875 24.105469 -15.511719 24.105469 -15.835938 L 24.105469 -22.054688 C 24.105469 -22.378906 23.890625 -22.59375 23.566406 -22.59375 L 13.132812 -22.59375 C 12.808594 -22.59375 12.59375 -22.808594 12.59375 -23.132812 L 12.59375 -30.703125 C 12.59375 -31.027344 12.808594 -31.242188 13.132812 -31.242188 L 27.621094 -31.242188 C 27.945312 -31.242188 28.160156 -31.457031 28.160156 -31.78125 L 28.160156 -38 C 28.160156 -38.324219 27.945312 -38.539062 27.621094 -38.539062 L 4.972656 -38.539062 C 4.648438 -38.539062 4.433594 -38.324219 4.433594 -38 L 4.433594 -0.539062 C 4.433594 -0.214844 4.648438 0 4.972656 0 Z M 4.972656 0" transform="translate(171.747 178.627)"/></g></g></g><g fill="#FFF"><g><g><path d="M 4.972656 0 L 26.214844 0 C 26.539062 0 26.757812 -0.214844 26.757812 -0.539062 L 26.757812 -6.757812 C 26.757812 -7.082031 26.539062 -7.296875 26.214844 -7.296875 L 13.132812 -7.296875 C 12.808594 -7.296875 12.59375 -7.511719 12.59375 -7.835938 L 12.59375 -38 C 12.59375 -38.324219 12.378906 -38.539062 12.054688 -38.539062 L 4.972656 -38.539062 C 4.648438 -38.539062 4.433594 -38.324219 4.433594 -38 L 4.433594 -0.539062 C 4.433594 -0.214844 4.648438 0 4.972656 0 Z M 4.972656 0" transform="translate(229.411 178.627)"/></g></g></g><g fill="#FFF"><g><g><path d="M 4.972656 0 L 12.054688 0 C 12.378906 0 12.59375 -0.214844 12.59375 -0.539062 L 12.59375 -38 C 12.59375 -38.324219 12.378906 -38.539062 12.054688 -38.539062 L 4.972656 -38.539062 C 4.648438 -38.539062 4.433594 -38.324219 4.433594 -38 L 4.433594 -0.539062 C 4.433594 -0.214844 4.648438 0 4.972656 0 Z M 4.972656 0" transform="translate(261.785 178.627)"/></g></g></g><g fill="#FFF"><g><g><path d="M 5.511719 0 L 12.59375 0 C 12.917969 0 13.132812 -0.214844 13.132812 -0.539062 L 13.132812 -13.511719 C 13.132812 -13.835938 13.351562 -14.054688 13.675781 -14.054688 L 23.027344 -14.054688 C 23.351562 -14.054688 23.566406 -14.269531 23.566406 -14.59375 L 23.566406 -20.808594 C 23.566406 -21.132812 23.351562 -21.351562 23.027344 -21.351562 L 13.675781 -21.351562 C 13.351562 -21.351562 13.132812 -21.566406 13.132812 -21.890625 L 13.132812 -30.703125 C 13.132812 -31.027344 13.351562 -31.242188 13.675781 -31.242188 L 28.484375 -31.242188 C 28.808594 -31.242188 29.027344 -31.457031 29.027344 -31.78125 L 29.027344 -38 C 29.027344 -38.324219 28.808594 -38.539062 28.484375 -38.539062 L 5.511719 -38.539062 C 5.1875 -38.539062 4.972656 -38.324219 4.972656 -38 L 4.972656 -0.539062 C 4.972656 -0.214844 5.1875 0 5.511719 0 Z M 5.511719 0" transform="translate(280 178.627)"/></g></g></g><g fill="#FFF"><g><g><path d="M 4.972656 0 L 28.160156 0 C 28.484375 0 28.703125 -0.214844 28.703125 -0.539062 L 28.703125 -6.757812 C 28.703125 -7.082031 28.484375 -7.296875 28.160156 -7.296875 L 13.132812 -7.296875 C 12.808594 -7.296875 12.59375 -7.511719 12.59375 -7.835938 L 12.59375 -14.757812 C 12.59375 -15.082031 12.808594 -15.296875 13.132812 -15.296875 L 23.566406 -15.296875 C 23.890625 -15.296875 24.105469 -15.511719 24.105469 -15.835938 L 24.105469 -22.054688 C 24.105469 -22.378906 23.890625 -22.59375 23.566406 -22.59375 L 13.132812 -22.59375 C 12.808594 -22.59375 12.59375 -22.808594 12.59375 -23.132812 L 12.59375 -30.703125 C 12.59375 -31.027344 12.808594 -31.242188 13.132812 -31.242188 L 27.621094 -31.242188 C 27.945312 -31.242188 28.160156 -31.457031 28.160156 -31.78125 L 28.160156 -38 C 28.160156 -38.324219 27.945312 -38.539062 27.621094 -38.539062 L 4.972656 -38.539062 C 4.648438 -38.539062 4.433594 -38.324219 4.433594 -38 L 4.433594 -0.539062 C 4.433594 -0.214844 4.648438 0 4.972656 0 Z M 4.972656 0" transform="translate(314.59 178.627)"/></g></g></g><path fill="#FFF" d="M 314.261719 198.144531 L 52.210938 198.144531 L 52.210938 200.347656 L 323.550781 200.347656 L 323.550781 198.144531 L 314.261719 198.144531"/></svg>