<svg xmlns="http://www.w3.org/2000/svg" width="1125" viewBox="0 0 1125 375" height="375" version="1.0"><g fill="#FFF"><g><g><path d="M 10.578125 -69.859375 L 47.84375 -69.859375 L 47.84375 -66.90625 L 13.96875 -66.90625 L 13.96875 -37.46875 L 42.5625 -37.46875 L 42.5625 -34.515625 L 13.96875 -34.515625 L 13.96875 0 L 10.578125 0 Z M 10.578125 -69.859375" transform="translate(193.03 342.062)"/></g></g></g><g fill="#FFF"><g><g><path d="M 20.953125 1.265625 C 16.722656 1.265625 13.226562 0.140625 10.46875 -2.109375 C 7.71875 -4.367188 6.34375 -7.796875 6.34375 -12.390625 C 6.34375 -17.960938 8.972656 -22.226562 14.234375 -25.1875 C 19.492188 -28.15625 27.945312 -30.273438 39.59375 -31.546875 C 39.726562 -36.484375 38.878906 -40.609375 37.046875 -43.921875 C 35.210938 -47.242188 31.894531 -48.90625 27.09375 -48.90625 C 23.851562 -48.90625 20.800781 -48.285156 17.9375 -47.046875 C 15.082031 -45.816406 12.628906 -44.390625 10.578125 -42.765625 L 8.890625 -45.3125 C 11.148438 -47 13.882812 -48.515625 17.09375 -49.859375 C 20.300781 -51.203125 23.707031 -51.875 27.3125 -51.875 C 32.8125 -51.875 36.757812 -50.125 39.15625 -46.625 C 41.5625 -43.132812 42.765625 -38.53125 42.765625 -32.8125 L 42.765625 0 L 40.015625 0 L 39.59375 -6.78125 L 39.375 -6.78125 C 32.675781 -1.414062 26.535156 1.265625 20.953125 1.265625 Z M 21.171875 -1.6875 C 24.140625 -1.6875 27.066406 -2.390625 29.953125 -3.796875 C 32.847656 -5.210938 36.0625 -7.40625 39.59375 -10.375 L 39.59375 -28.796875 C 28.71875 -27.523438 21.019531 -25.597656 16.5 -23.015625 C 11.988281 -20.441406 9.734375 -16.929688 9.734375 -12.484375 C 9.734375 -8.816406 10.8125 -6.097656 12.96875 -4.328125 C 15.125 -2.566406 17.859375 -1.6875 21.171875 -1.6875 Z M 21.171875 -1.6875" transform="translate(242.768 342.062)"/></g></g></g><g fill="#FFF"><g><g><path d="M 10.15625 -50.59375 L 12.921875 -50.59375 L 13.34375 -42.5625 L 13.546875 -42.5625 C 16.015625 -45.382812 18.660156 -47.640625 21.484375 -49.328125 C 24.304688 -51.023438 27.023438 -51.875 29.640625 -51.875 C 37.046875 -51.875 41.703125 -48.34375 43.609375 -41.28125 C 49.960938 -48.34375 55.75 -51.875 60.96875 -51.875 C 65.976562 -51.875 69.734375 -50.285156 72.234375 -47.109375 C 74.742188 -43.929688 76 -39.097656 76 -32.609375 L 76 0 L 72.828125 0 L 72.828125 -32.1875 C 72.828125 -37.832031 71.835938 -42.03125 69.859375 -44.78125 C 67.890625 -47.53125 64.859375 -48.90625 60.765625 -48.90625 C 58.296875 -48.90625 55.753906 -48.078125 53.140625 -46.421875 C 50.523438 -44.765625 47.703125 -42.207031 44.671875 -38.75 L 44.671875 0 L 41.5 0 L 41.5 -32.1875 C 41.5 -37.832031 40.507812 -42.03125 38.53125 -44.78125 C 36.550781 -47.53125 33.515625 -48.90625 29.421875 -48.90625 C 24.628906 -48.90625 19.269531 -45.519531 13.34375 -38.75 L 13.34375 0 L 10.15625 0 Z M 10.15625 -50.59375" transform="translate(294.2 342.062)"/></g></g></g><g fill="#FFF"><g><g><path d="M 10.15625 -50.59375 L 13.34375 -50.59375 L 13.34375 0 L 10.15625 0 Z M 11.859375 -63.515625 C 10.867188 -63.515625 10.054688 -63.863281 9.421875 -64.5625 C 8.785156 -65.269531 8.46875 -66.191406 8.46875 -67.328125 C 8.46875 -68.390625 8.785156 -69.253906 9.421875 -69.921875 C 10.054688 -70.585938 10.867188 -70.921875 11.859375 -70.921875 C 12.847656 -70.921875 13.660156 -70.585938 14.296875 -69.921875 C 14.929688 -69.253906 15.25 -68.390625 15.25 -67.328125 C 15.25 -66.191406 14.929688 -65.269531 14.296875 -64.5625 C 13.660156 -63.863281 12.847656 -63.515625 11.859375 -63.515625 Z M 11.859375 -63.515625" transform="translate(379.496 342.062)"/></g></g></g><g fill="#FFF"><g><g><path d="M 15.25 1.265625 C 11.851562 1.265625 10.15625 -0.988281 10.15625 -5.5 L 10.15625 -76.4375 L 13.34375 -76.4375 L 13.34375 -4.875 C 13.34375 -3.8125 13.535156 -3.015625 13.921875 -2.484375 C 14.304688 -1.953125 14.816406 -1.6875 15.453125 -1.6875 C 16.015625 -1.6875 16.648438 -1.757812 17.359375 -1.90625 L 18 0.84375 C 16.863281 1.125 15.945312 1.265625 15.25 1.265625 Z M 15.25 1.265625" transform="translate(402.99 342.062)"/></g></g></g><g fill="#FFF"><g><g><path d="M 6.984375 23.5 C 5.148438 23.5 3.523438 23.144531 2.109375 22.4375 L 2.96875 19.484375 C 4.375 20.046875 5.785156 20.328125 7.203125 20.328125 C 10.234375 20.328125 12.878906 19.035156 15.140625 16.453125 C 17.398438 13.878906 19.269531 10.367188 20.75 5.921875 L 22.234375 1.265625 L 1.265625 -50.59375 L 4.875 -50.59375 L 17.78125 -17.359375 L 19.265625 -13.65625 C 21.316406 -8.4375 22.726562 -4.941406 23.5 -3.171875 L 23.921875 -3.171875 C 24.628906 -5.003906 25.226562 -6.679688 25.71875 -8.203125 C 26.21875 -9.722656 26.675781 -11.046875 27.09375 -12.171875 C 27.3125 -12.804688 27.878906 -14.535156 28.796875 -17.359375 L 40.21875 -50.59375 L 43.609375 -50.59375 L 23.28125 7.203125 C 21.800781 11.785156 19.703125 15.644531 16.984375 18.78125 C 14.273438 21.925781 10.941406 23.5 6.984375 23.5 Z M 6.984375 23.5" transform="translate(427.33 342.062)"/></g></g></g><g fill="#FFF"><g><g><path d="M 49.328125 0 L 29.640625 -33.03125 L 13.96875 -33.03125 L 13.96875 0 L 10.578125 0 L 10.578125 -69.859375 L 29.859375 -69.859375 C 44.816406 -69.859375 52.296875 -63.863281 52.296875 -51.875 C 52.296875 -46.363281 50.632812 -42.019531 47.3125 -38.84375 C 44 -35.675781 39.378906 -33.804688 33.453125 -33.234375 L 53.359375 0 Z M 28.578125 -35.984375 C 35.140625 -35.984375 40.128906 -37.304688 43.546875 -39.953125 C 46.972656 -42.609375 48.6875 -46.582031 48.6875 -51.875 C 48.6875 -57.238281 47.007812 -61.082031 43.65625 -63.40625 C 40.3125 -65.738281 35.285156 -66.90625 28.578125 -66.90625 L 13.96875 -66.90625 L 13.96875 -35.984375 Z M 28.578125 -35.984375" transform="translate(493.366 342.062)"/></g></g></g><g fill="#FFF"><g><g><path d="M 46.578125 -28.578125 C 46.578125 -27.171875 46.503906 -26.039062 46.359375 -25.1875 L 9.109375 -25.1875 C 9.109375 -20.46875 9.972656 -16.320312 11.703125 -12.75 C 13.429688 -9.1875 15.8125 -6.453125 18.84375 -4.546875 C 21.875 -2.640625 25.257812 -1.6875 29 -1.6875 C 34.007812 -1.6875 38.671875 -3.238281 42.984375 -6.34375 L 44.453125 -3.59375 C 41.847656 -2.039062 39.429688 -0.84375 37.203125 0 C 34.984375 0.84375 32.179688 1.265625 28.796875 1.265625 C 24.554688 1.265625 20.671875 0.191406 17.140625 -1.953125 C 13.617188 -4.109375 10.832031 -7.179688 8.78125 -11.171875 C 6.738281 -15.160156 5.71875 -19.832031 5.71875 -25.1875 C 5.71875 -30.488281 6.738281 -35.164062 8.78125 -39.21875 C 10.832031 -43.28125 13.515625 -46.40625 16.828125 -48.59375 C 20.148438 -50.78125 23.710938 -51.875 27.515625 -51.875 C 33.453125 -51.875 38.113281 -49.84375 41.5 -45.78125 C 44.882812 -41.726562 46.578125 -35.992188 46.578125 -28.578125 Z M 43.40625 -28.15625 C 43.40625 -34.9375 41.992188 -40.085938 39.171875 -43.609375 C 36.347656 -47.140625 32.460938 -48.90625 27.515625 -48.90625 C 24.554688 -48.90625 21.753906 -48.128906 19.109375 -46.578125 C 16.460938 -45.023438 14.238281 -42.675781 12.4375 -39.53125 C 10.632812 -36.394531 9.554688 -32.601562 9.203125 -28.15625 Z M 43.40625 -28.15625" transform="translate(549.877 342.062)"/></g></g></g><g fill="#FFF"><g><g><path d="M 28.375 1.265625 C 24.0625 1.265625 20.175781 0.207031 16.71875 -1.90625 C 13.257812 -4.019531 10.5625 -7.070312 8.625 -11.0625 C 6.6875 -15.050781 5.71875 -19.757812 5.71875 -25.1875 C 5.71875 -30.625 6.738281 -35.367188 8.78125 -39.421875 C 10.832031 -43.484375 13.585938 -46.570312 17.046875 -48.6875 C 20.503906 -50.8125 24.28125 -51.875 28.375 -51.875 C 31.550781 -51.875 34.300781 -51.289062 36.625 -50.125 C 38.957031 -48.957031 41.144531 -47.421875 43.1875 -45.515625 L 41.078125 -43.1875 C 36.984375 -47 32.75 -48.90625 28.375 -48.90625 C 24.769531 -48.90625 21.503906 -47.898438 18.578125 -45.890625 C 15.648438 -43.878906 13.335938 -41.070312 11.640625 -37.46875 C 9.953125 -33.875 9.109375 -29.78125 9.109375 -25.1875 C 9.109375 -20.601562 9.898438 -16.53125 11.484375 -12.96875 C 13.078125 -9.40625 15.335938 -6.632812 18.265625 -4.65625 C 21.191406 -2.675781 24.5625 -1.6875 28.375 -1.6875 C 33.445312 -1.6875 38.175781 -3.734375 42.5625 -7.828125 L 44.453125 -5.5 C 39.441406 -0.988281 34.082031 1.265625 28.375 1.265625 Z M 28.375 1.265625" transform="translate(600.462 342.062)"/></g></g></g><g fill="#FFF"><g><g><path d="M 28.15625 1.265625 C 24.0625 1.265625 20.300781 0.207031 16.875 -1.90625 C 13.457031 -4.019531 10.742188 -7.085938 8.734375 -11.109375 C 6.722656 -15.140625 5.71875 -19.832031 5.71875 -25.1875 C 5.71875 -30.625 6.722656 -35.367188 8.734375 -39.421875 C 10.742188 -43.484375 13.457031 -46.570312 16.875 -48.6875 C 20.300781 -50.8125 24.0625 -51.875 28.15625 -51.875 C 32.25 -51.875 36.003906 -50.8125 39.421875 -48.6875 C 42.847656 -46.570312 45.566406 -43.484375 47.578125 -39.421875 C 49.585938 -35.367188 50.59375 -30.625 50.59375 -25.1875 C 50.59375 -19.832031 49.585938 -15.140625 47.578125 -11.109375 C 45.566406 -7.085938 42.847656 -4.019531 39.421875 -1.90625 C 36.003906 0.207031 32.25 1.265625 28.15625 1.265625 Z M 28.15625 -1.6875 C 31.757812 -1.6875 35.003906 -2.675781 37.890625 -4.65625 C 40.785156 -6.632812 43.0625 -9.40625 44.71875 -12.96875 C 46.382812 -16.53125 47.21875 -20.601562 47.21875 -25.1875 C 47.21875 -29.78125 46.382812 -33.875 44.71875 -37.46875 C 43.0625 -41.070312 40.785156 -43.878906 37.890625 -45.890625 C 35.003906 -47.898438 31.757812 -48.90625 28.15625 -48.90625 C 24.5625 -48.90625 21.316406 -47.898438 18.421875 -45.890625 C 15.523438 -43.878906 13.25 -41.070312 11.59375 -37.46875 C 9.9375 -33.875 9.109375 -29.78125 9.109375 -25.1875 C 9.109375 -20.601562 9.9375 -16.53125 11.59375 -12.96875 C 13.25 -9.40625 15.523438 -6.632812 18.421875 -4.65625 C 21.316406 -2.675781 24.5625 -1.6875 28.15625 -1.6875 Z M 28.15625 -1.6875" transform="translate(647.66 342.062)"/></g></g></g><g fill="#FFF"><g><g><path d="M 24.5625 1.265625 C 19.332031 1.265625 15.484375 -0.300781 13.015625 -3.4375 C 10.546875 -6.582031 9.3125 -11.4375 9.3125 -18 L 9.3125 -50.59375 L 12.484375 -50.59375 L 12.484375 -18.421875 C 12.484375 -12.703125 13.453125 -8.484375 15.390625 -5.765625 C 17.335938 -3.046875 20.460938 -1.6875 24.765625 -1.6875 C 27.867188 -1.6875 30.726562 -2.535156 33.34375 -4.234375 C 35.957031 -5.929688 38.882812 -8.753906 42.125 -12.703125 L 42.125 -50.59375 L 45.3125 -50.59375 L 45.3125 0 L 42.5625 0 L 42.125 -8.6875 L 41.921875 -8.6875 C 39.171875 -5.4375 36.414062 -2.960938 33.65625 -1.265625 C 30.90625 0.421875 27.875 1.265625 24.5625 1.265625 Z M 24.5625 1.265625" transform="translate(703.96 342.062)"/></g></g></g><g fill="#FFF"><g><g><path d="M 10.15625 -50.59375 L 12.921875 -50.59375 L 13.34375 -41.078125 L 13.546875 -41.078125 C 15.378906 -44.390625 17.515625 -47.015625 19.953125 -48.953125 C 22.390625 -50.898438 25.054688 -51.875 27.953125 -51.875 C 29.785156 -51.875 31.40625 -51.519531 32.8125 -50.8125 L 31.96875 -47.84375 C 31.050781 -48.195312 30.3125 -48.425781 29.75 -48.53125 C 29.1875 -48.632812 28.441406 -48.6875 27.515625 -48.6875 C 24.984375 -48.6875 22.460938 -47.59375 19.953125 -45.40625 C 17.453125 -43.21875 15.25 -39.796875 13.34375 -35.140625 L 13.34375 0 L 10.15625 0 Z M 10.15625 -50.59375" transform="translate(759.413 342.062)"/></g></g></g><g fill="#FFF"><g><g><path d="M 28.375 1.265625 C 24.0625 1.265625 20.175781 0.207031 16.71875 -1.90625 C 13.257812 -4.019531 10.5625 -7.070312 8.625 -11.0625 C 6.6875 -15.050781 5.71875 -19.757812 5.71875 -25.1875 C 5.71875 -30.625 6.738281 -35.367188 8.78125 -39.421875 C 10.832031 -43.484375 13.585938 -46.570312 17.046875 -48.6875 C 20.503906 -50.8125 24.28125 -51.875 28.375 -51.875 C 31.550781 -51.875 34.300781 -51.289062 36.625 -50.125 C 38.957031 -48.957031 41.144531 -47.421875 43.1875 -45.515625 L 41.078125 -43.1875 C 36.984375 -47 32.75 -48.90625 28.375 -48.90625 C 24.769531 -48.90625 21.503906 -47.898438 18.578125 -45.890625 C 15.648438 -43.878906 13.335938 -41.070312 11.640625 -37.46875 C 9.953125 -33.875 9.109375 -29.78125 9.109375 -25.1875 C 9.109375 -20.601562 9.898438 -16.53125 11.484375 -12.96875 C 13.078125 -9.40625 15.335938 -6.632812 18.265625 -4.65625 C 21.191406 -2.675781 24.5625 -1.6875 28.375 -1.6875 C 33.445312 -1.6875 38.175781 -3.734375 42.5625 -7.828125 L 44.453125 -5.5 C 39.441406 -0.988281 34.082031 1.265625 28.375 1.265625 Z M 28.375 1.265625" transform="translate(791.796 342.062)"/></g></g></g><g fill="#FFF"><g><g><path d="M 46.578125 -28.578125 C 46.578125 -27.171875 46.503906 -26.039062 46.359375 -25.1875 L 9.109375 -25.1875 C 9.109375 -20.46875 9.972656 -16.320312 11.703125 -12.75 C 13.429688 -9.1875 15.8125 -6.453125 18.84375 -4.546875 C 21.875 -2.640625 25.257812 -1.6875 29 -1.6875 C 34.007812 -1.6875 38.671875 -3.238281 42.984375 -6.34375 L 44.453125 -3.59375 C 41.847656 -2.039062 39.429688 -0.84375 37.203125 0 C 34.984375 0.84375 32.179688 1.265625 28.796875 1.265625 C 24.554688 1.265625 20.671875 0.191406 17.140625 -1.953125 C 13.617188 -4.109375 10.832031 -7.179688 8.78125 -11.171875 C 6.738281 -15.160156 5.71875 -19.832031 5.71875 -25.1875 C 5.71875 -30.488281 6.738281 -35.164062 8.78125 -39.21875 C 10.832031 -43.28125 13.515625 -46.40625 16.828125 -48.59375 C 20.148438 -50.78125 23.710938 -51.875 27.515625 -51.875 C 33.453125 -51.875 38.113281 -49.84375 41.5 -45.78125 C 44.882812 -41.726562 46.578125 -35.992188 46.578125 -28.578125 Z M 43.40625 -28.15625 C 43.40625 -34.9375 41.992188 -40.085938 39.171875 -43.609375 C 36.347656 -47.140625 32.460938 -48.90625 27.515625 -48.90625 C 24.554688 -48.90625 21.753906 -48.128906 19.109375 -46.578125 C 16.460938 -45.023438 14.238281 -42.675781 12.4375 -39.53125 C 10.632812 -36.394531 9.554688 -32.601562 9.203125 -28.15625 Z M 43.40625 -28.15625" transform="translate(838.995 342.062)"/></g></g></g><g fill="#FFF"><g><g><path d="M 22.015625 1.265625 C 18.421875 1.265625 15.066406 0.628906 11.953125 -0.640625 C 8.847656 -1.910156 6.0625 -3.601562 3.59375 -5.71875 L 5.71875 -8.25 C 8.1875 -6.132812 10.691406 -4.507812 13.234375 -3.375 C 15.773438 -2.25 18.773438 -1.6875 22.234375 -1.6875 C 26.253906 -1.6875 29.410156 -2.726562 31.703125 -4.8125 C 33.992188 -6.894531 35.140625 -9.453125 35.140625 -12.484375 C 35.140625 -15.523438 33.992188 -17.910156 31.703125 -19.640625 C 29.410156 -21.367188 26.320312 -22.9375 22.4375 -24.34375 C 18.84375 -25.613281 15.96875 -26.757812 13.8125 -27.78125 C 11.65625 -28.8125 9.800781 -30.222656 8.25 -32.015625 C 6.695312 -33.816406 5.921875 -36.0625 5.921875 -38.75 C 5.921875 -42.414062 7.332031 -45.519531 10.15625 -48.0625 C 12.976562 -50.601562 16.863281 -51.875 21.8125 -51.875 C 24.28125 -51.875 26.765625 -51.414062 29.265625 -50.5 C 31.773438 -49.582031 33.945312 -48.347656 35.78125 -46.796875 L 33.875 -44.25 C 31.894531 -45.726562 29.953125 -46.875 28.046875 -47.6875 C 26.140625 -48.5 23.988281 -48.90625 21.59375 -48.90625 C 17.644531 -48.90625 14.609375 -47.929688 12.484375 -45.984375 C 10.367188 -44.046875 9.3125 -41.703125 9.3125 -38.953125 C 9.3125 -37.046875 9.875 -35.441406 11 -34.140625 C 12.132812 -32.835938 13.492188 -31.78125 15.078125 -30.96875 C 16.671875 -30.15625 18.84375 -29.21875 21.59375 -28.15625 C 22.226562 -27.875 24.3125 -27.097656 27.84375 -25.828125 C 31.375 -24.554688 34.035156 -22.828125 35.828125 -20.640625 C 37.628906 -18.453125 38.53125 -15.804688 38.53125 -12.703125 C 38.53125 -10.160156 37.875 -7.832031 36.5625 -5.71875 C 35.257812 -3.601562 33.351562 -1.910156 30.84375 -0.640625 C 28.34375 0.628906 25.398438 1.265625 22.015625 1.265625 Z M 22.015625 1.265625" transform="translate(889.58 342.062)"/></g></g></g><g fill="#FFF"><g><g><path d="M 16.597656 0 L 37.910156 0 C 38.886719 0 39.539062 -0.652344 39.539062 -1.628906 L 39.539062 -42.464844 C 39.539062 -43.441406 40.1875 -44.09375 41.164062 -44.09375 L 89 -44.09375 C 89.976562 -44.09375 90.628906 -43.441406 90.628906 -42.464844 L 90.628906 -1.628906 C 90.628906 -0.652344 91.277344 0 92.253906 0 L 113.734375 0 C 114.707031 0 115.359375 -0.652344 115.359375 -1.628906 L 115.359375 -114.382812 C 115.359375 -115.359375 114.707031 -116.011719 113.734375 -116.011719 L 92.253906 -116.011719 C 91.277344 -116.011719 90.628906 -115.359375 90.628906 -114.382812 L 90.628906 -67.6875 C 90.628906 -66.710938 89.976562 -66.058594 89 -66.058594 L 41.164062 -66.058594 C 40.1875 -66.058594 39.539062 -66.710938 39.539062 -67.6875 L 39.539062 -114.382812 C 39.539062 -115.359375 38.886719 -116.011719 37.910156 -116.011719 L 16.597656 -116.011719 C 15.621094 -116.011719 14.96875 -115.359375 14.96875 -114.382812 L 14.96875 -1.628906 C 14.96875 -0.652344 15.621094 0 16.597656 0 Z M 16.597656 0" transform="translate(83.459 165.179)"/></g></g></g><g fill="#FFF"><g><g><path d="M 73.054688 0.488281 C 106.574219 0.488281 130.980469 -24.570312 130.980469 -58.085938 C 130.980469 -91.605469 106.574219 -116.5 73.054688 -116.5 C 39.539062 -116.5 14.96875 -91.605469 14.96875 -58.085938 C 14.96875 -24.570312 39.539062 0.488281 73.054688 0.488281 Z M 73.054688 -21.476562 C 55.320312 -21.476562 39.539062 -34.007812 39.539062 -58.085938 C 39.539062 -82.167969 55.320312 -94.53125 73.054688 -94.53125 C 90.628906 -94.53125 106.25 -82.167969 106.25 -58.085938 C 106.25 -34.007812 90.628906 -21.476562 73.054688 -21.476562 Z M 73.054688 -21.476562" transform="translate(217.191 165.179)"/></g></g></g><g fill="#FFF"><g><g><path d="M 16.597656 0 L 37.910156 0 C 38.886719 0 39.539062 -0.652344 39.539062 -1.628906 L 39.539062 -56.621094 C 39.539062 -58.085938 40.675781 -58.410156 41.492188 -57.273438 L 72.894531 -9.925781 C 73.542969 -8.949219 74.519531 -8.949219 75.171875 -9.925781 L 106.734375 -57.4375 C 107.550781 -58.574219 108.6875 -58.085938 108.6875 -56.621094 L 108.6875 -1.628906 C 108.6875 -0.652344 109.339844 0 110.316406 0 L 131.792969 0 C 132.769531 0 133.421875 -0.652344 133.421875 -1.628906 L 133.421875 -114.382812 C 133.421875 -115.359375 132.769531 -116.011719 131.792969 -116.011719 L 119.753906 -116.011719 C 118.9375 -116.011719 118.125 -115.847656 117.636719 -115.035156 L 75.171875 -48.8125 C 74.519531 -47.835938 73.542969 -47.835938 72.894531 -48.8125 L 30.589844 -115.035156 C 30.101562 -115.847656 29.289062 -116.011719 28.472656 -116.011719 L 16.597656 -116.011719 C 15.621094 -116.011719 14.96875 -115.359375 14.96875 -114.382812 L 14.96875 -1.628906 C 14.96875 -0.652344 15.621094 0 16.597656 0 Z M 16.597656 0" transform="translate(364.915 165.179)"/></g></g></g><g fill="#FFF"><g><g><path d="M 14.96875 0 L 84.769531 0 C 85.746094 0 86.398438 -0.652344 86.398438 -1.628906 L 86.398438 -20.339844 C 86.398438 -21.316406 85.746094 -21.964844 84.769531 -21.964844 L 39.539062 -21.964844 C 38.5625 -21.964844 37.910156 -22.617188 37.910156 -23.59375 L 37.910156 -44.417969 C 37.910156 -45.394531 38.5625 -46.046875 39.539062 -46.046875 L 70.941406 -46.046875 C 71.917969 -46.046875 72.566406 -46.695312 72.566406 -47.671875 L 72.566406 -66.382812 C 72.566406 -67.359375 71.917969 -68.011719 70.941406 -68.011719 L 39.539062 -68.011719 C 38.5625 -68.011719 37.910156 -68.664062 37.910156 -69.640625 L 37.910156 -92.417969 C 37.910156 -93.394531 38.5625 -94.046875 39.539062 -94.046875 L 83.144531 -94.046875 C 84.121094 -94.046875 84.769531 -94.695312 84.769531 -95.671875 L 84.769531 -114.382812 C 84.769531 -115.359375 84.121094 -116.011719 83.144531 -116.011719 L 14.96875 -116.011719 C 13.992188 -116.011719 13.34375 -115.359375 13.34375 -114.382812 L 13.34375 -1.628906 C 13.34375 -0.652344 13.992188 0 14.96875 0 Z M 14.96875 0" transform="translate(515.08 165.179)"/></g></g></g><g fill="#FFF"><g><g><path d="M 14.96875 0 L 78.914062 0 C 79.890625 0 80.539062 -0.652344 80.539062 -1.628906 L 80.539062 -20.339844 C 80.539062 -21.316406 79.890625 -21.964844 78.914062 -21.964844 L 39.539062 -21.964844 C 38.5625 -21.964844 37.910156 -22.617188 37.910156 -23.59375 L 37.910156 -114.382812 C 37.910156 -115.359375 37.261719 -116.011719 36.285156 -116.011719 L 14.96875 -116.011719 C 13.992188 -116.011719 13.34375 -115.359375 13.34375 -114.382812 L 13.34375 -1.628906 C 13.34375 -0.652344 13.992188 0 14.96875 0 Z M 14.96875 0" transform="translate(688.66 165.179)"/></g></g></g><g fill="#FFF"><g><g><path d="M 14.96875 0 L 36.285156 0 C 37.261719 0 37.910156 -0.652344 37.910156 -1.628906 L 37.910156 -114.382812 C 37.910156 -115.359375 37.261719 -116.011719 36.285156 -116.011719 L 14.96875 -116.011719 C 13.992188 -116.011719 13.34375 -115.359375 13.34375 -114.382812 L 13.34375 -1.628906 C 13.34375 -0.652344 13.992188 0 14.96875 0 Z M 14.96875 0" transform="translate(786.112 165.179)"/></g></g></g><g fill="#FFF"><g><g><path d="M 16.597656 0 L 37.910156 0 C 38.886719 0 39.539062 -0.652344 39.539062 -1.628906 L 39.539062 -40.675781 C 39.539062 -41.652344 40.1875 -42.304688 41.164062 -42.304688 L 69.3125 -42.304688 C 70.289062 -42.304688 70.941406 -42.953125 70.941406 -43.929688 L 70.941406 -62.640625 C 70.941406 -63.617188 70.289062 -64.269531 69.3125 -64.269531 L 41.164062 -64.269531 C 40.1875 -64.269531 39.539062 -64.921875 39.539062 -65.898438 L 39.539062 -92.417969 C 39.539062 -93.394531 40.1875 -94.046875 41.164062 -94.046875 L 85.746094 -94.046875 C 86.722656 -94.046875 87.375 -94.695312 87.375 -95.671875 L 87.375 -114.382812 C 87.375 -115.359375 86.722656 -116.011719 85.746094 -116.011719 L 16.597656 -116.011719 C 15.621094 -116.011719 14.96875 -115.359375 14.96875 -114.382812 L 14.96875 -1.628906 C 14.96875 -0.652344 15.621094 0 16.597656 0 Z M 16.597656 0" transform="translate(840.94 165.179)"/></g></g></g><g fill="#FFF"><g><g><path d="M 14.96875 0 L 84.769531 0 C 85.746094 0 86.398438 -0.652344 86.398438 -1.628906 L 86.398438 -20.339844 C 86.398438 -21.316406 85.746094 -21.964844 84.769531 -21.964844 L 39.539062 -21.964844 C 38.5625 -21.964844 37.910156 -22.617188 37.910156 -23.59375 L 37.910156 -44.417969 C 37.910156 -45.394531 38.5625 -46.046875 39.539062 -46.046875 L 70.941406 -46.046875 C 71.917969 -46.046875 72.566406 -46.695312 72.566406 -47.671875 L 72.566406 -66.382812 C 72.566406 -67.359375 71.917969 -68.011719 70.941406 -68.011719 L 39.539062 -68.011719 C 38.5625 -68.011719 37.910156 -68.664062 37.910156 -69.640625 L 37.910156 -92.417969 C 37.910156 -93.394531 38.5625 -94.046875 39.539062 -94.046875 L 83.144531 -94.046875 C 84.121094 -94.046875 84.769531 -94.695312 84.769531 -95.671875 L 84.769531 -114.382812 C 84.769531 -115.359375 84.121094 -116.011719 83.144531 -116.011719 L 14.96875 -116.011719 C 13.992188 -116.011719 13.34375 -115.359375 13.34375 -114.382812 L 13.34375 -1.628906 C 13.34375 -0.652344 13.992188 0 14.96875 0 Z M 14.96875 0" transform="translate(945.063 165.179)"/></g></g></g><path fill="#FFF" d="M 943.757812 224.1875 L 155.066406 224.1875 L 155.066406 230.878906 L 971.710938 230.878906 L 971.710938 224.1875 L 943.757812 224.1875"/></svg>