<svg xmlns="http://www.w3.org/2000/svg" width="375" viewBox="0 0 375 375" height="375" version="1.0"><defs><clipPath id="a"><path d="M 78.214844 32.53125 L 297.214844 32.53125 L 297.214844 251.53125 L 78.214844 251.53125 Z M 78.214844 32.53125"/></clipPath></defs><g><g><g><path d="M 2.0625 -13.578125 L 9.296875 -13.578125 L 9.296875 -13 L 2.71875 -13 L 2.71875 -7.28125 L 8.265625 -7.28125 L 8.265625 -6.703125 L 2.71875 -6.703125 L 2.71875 0 L 2.0625 0 Z M 2.0625 -13.578125" transform="translate(115.676 316.764)"/></g></g></g><g><g><g><path d="M 4.078125 0.25 C 3.253906 0.25 2.570312 0.03125 2.03125 -0.40625 C 1.5 -0.84375 1.234375 -1.507812 1.234375 -2.40625 C 1.234375 -3.488281 1.742188 -4.316406 2.765625 -4.890625 C 3.785156 -5.472656 5.429688 -5.882812 7.703125 -6.125 C 7.722656 -7.09375 7.554688 -7.894531 7.203125 -8.53125 C 6.847656 -9.175781 6.203125 -9.5 5.265625 -9.5 C 4.640625 -9.5 4.046875 -9.378906 3.484375 -9.140625 C 2.929688 -8.898438 2.457031 -8.625 2.0625 -8.3125 L 1.734375 -8.8125 C 2.171875 -9.132812 2.703125 -9.425781 3.328125 -9.6875 C 3.953125 -9.945312 4.613281 -10.078125 5.3125 -10.078125 C 6.382812 -10.078125 7.148438 -9.738281 7.609375 -9.0625 C 8.078125 -8.382812 8.3125 -7.488281 8.3125 -6.375 L 8.3125 0 L 7.78125 0 L 7.703125 -1.3125 L 7.65625 -1.3125 C 6.351562 -0.269531 5.160156 0.25 4.078125 0.25 Z M 4.109375 -0.328125 C 4.691406 -0.328125 5.265625 -0.460938 5.828125 -0.734375 C 6.390625 -1.015625 7.015625 -1.441406 7.703125 -2.015625 L 7.703125 -5.59375 C 5.585938 -5.351562 4.085938 -4.976562 3.203125 -4.46875 C 2.328125 -3.96875 1.890625 -3.285156 1.890625 -2.421875 C 1.890625 -1.710938 2.097656 -1.1875 2.515625 -0.84375 C 2.941406 -0.5 3.472656 -0.328125 4.109375 -0.328125 Z M 4.109375 -0.328125" transform="translate(125.345 316.764)"/></g></g></g><g><g><g><path d="M 1.96875 -9.84375 L 2.515625 -9.84375 L 2.59375 -8.265625 L 2.640625 -8.265625 C 3.117188 -8.816406 3.628906 -9.253906 4.171875 -9.578125 C 4.722656 -9.910156 5.253906 -10.078125 5.765625 -10.078125 C 7.203125 -10.078125 8.109375 -9.394531 8.484375 -8.03125 C 9.710938 -9.394531 10.835938 -10.078125 11.859375 -10.078125 C 12.828125 -10.078125 13.554688 -9.769531 14.046875 -9.15625 C 14.535156 -8.539062 14.78125 -7.601562 14.78125 -6.34375 L 14.78125 0 L 14.15625 0 L 14.15625 -6.25 C 14.15625 -7.351562 13.960938 -8.171875 13.578125 -8.703125 C 13.191406 -9.234375 12.601562 -9.5 11.8125 -9.5 C 11.332031 -9.5 10.835938 -9.335938 10.328125 -9.015625 C 9.816406 -8.703125 9.269531 -8.207031 8.6875 -7.53125 L 8.6875 0 L 8.0625 0 L 8.0625 -6.25 C 8.0625 -7.351562 7.867188 -8.171875 7.484375 -8.703125 C 7.109375 -9.234375 6.519531 -9.5 5.71875 -9.5 C 4.789062 -9.5 3.75 -8.84375 2.59375 -7.53125 L 2.59375 0 L 1.96875 0 Z M 1.96875 -9.84375" transform="translate(135.343 316.764)"/></g></g></g><g><g><g><path d="M 1.96875 -9.84375 L 2.59375 -9.84375 L 2.59375 0 L 1.96875 0 Z M 2.3125 -12.34375 C 2.125 -12.34375 1.96875 -12.410156 1.84375 -12.546875 C 1.71875 -12.691406 1.65625 -12.875 1.65625 -13.09375 C 1.65625 -13.289062 1.71875 -13.453125 1.84375 -13.578125 C 1.96875 -13.710938 2.125 -13.78125 2.3125 -13.78125 C 2.5 -13.78125 2.65625 -13.710938 2.78125 -13.578125 C 2.90625 -13.453125 2.96875 -13.289062 2.96875 -13.09375 C 2.96875 -12.875 2.90625 -12.691406 2.78125 -12.546875 C 2.65625 -12.410156 2.5 -12.34375 2.3125 -12.34375 Z M 2.3125 -12.34375" transform="translate(151.925 316.764)"/></g></g></g><g><g><g><path d="M 2.96875 0.25 C 2.300781 0.25 1.96875 -0.1875 1.96875 -1.0625 L 1.96875 -14.859375 L 2.59375 -14.859375 L 2.59375 -0.953125 C 2.59375 -0.742188 2.628906 -0.585938 2.703125 -0.484375 C 2.773438 -0.378906 2.875 -0.328125 3 -0.328125 C 3.113281 -0.328125 3.238281 -0.34375 3.375 -0.375 L 3.5 0.171875 C 3.28125 0.222656 3.101562 0.25 2.96875 0.25 Z M 2.96875 0.25" transform="translate(156.492 316.764)"/></g></g></g><g><g><g><path d="M 1.359375 4.5625 C 1.003906 4.5625 0.6875 4.492188 0.40625 4.359375 L 0.578125 3.78125 C 0.847656 3.894531 1.125 3.953125 1.40625 3.953125 C 1.988281 3.953125 2.5 3.703125 2.9375 3.203125 C 3.375 2.703125 3.738281 2.019531 4.03125 1.15625 L 4.328125 0.25 L 0.25 -9.84375 L 0.953125 -9.84375 L 3.453125 -3.375 L 3.75 -2.65625 C 4.144531 -1.632812 4.414062 -0.957031 4.5625 -0.625 L 4.65625 -0.625 C 4.789062 -0.976562 4.90625 -1.300781 5 -1.59375 C 5.09375 -1.882812 5.179688 -2.140625 5.265625 -2.359375 C 5.304688 -2.484375 5.414062 -2.820312 5.59375 -3.375 L 7.8125 -9.84375 L 8.484375 -9.84375 L 4.53125 1.40625 C 4.238281 2.289062 3.828125 3.035156 3.296875 3.640625 C 2.773438 4.253906 2.128906 4.5625 1.359375 4.5625 Z M 1.359375 4.5625" transform="translate(161.224 316.764)"/></g></g></g><g><g><g><path d="M 9.59375 0 L 5.765625 -6.421875 L 2.71875 -6.421875 L 2.71875 0 L 2.0625 0 L 2.0625 -13.578125 L 5.796875 -13.578125 C 8.710938 -13.578125 10.171875 -12.410156 10.171875 -10.078125 C 10.171875 -9.015625 9.847656 -8.171875 9.203125 -7.546875 C 8.554688 -6.929688 7.65625 -6.570312 6.5 -6.46875 L 10.375 0 Z M 5.5625 -7 C 6.832031 -7 7.800781 -7.253906 8.46875 -7.765625 C 9.132812 -8.285156 9.46875 -9.054688 9.46875 -10.078125 C 9.46875 -11.117188 9.140625 -11.863281 8.484375 -12.3125 C 7.835938 -12.769531 6.863281 -13 5.5625 -13 L 2.71875 -13 L 2.71875 -7 Z M 5.5625 -7" transform="translate(174.061 316.764)"/></g></g></g><g><g><g><path d="M 9.046875 -5.5625 C 9.046875 -5.28125 9.035156 -5.054688 9.015625 -4.890625 L 1.765625 -4.890625 C 1.765625 -3.972656 1.929688 -3.164062 2.265625 -2.46875 C 2.609375 -1.78125 3.070312 -1.25 3.65625 -0.875 C 4.25 -0.507812 4.910156 -0.328125 5.640625 -0.328125 C 6.609375 -0.328125 7.515625 -0.628906 8.359375 -1.234375 L 8.640625 -0.703125 C 8.128906 -0.398438 7.65625 -0.164062 7.21875 0 C 6.789062 0.164062 6.25 0.25 5.59375 0.25 C 4.769531 0.25 4.015625 0.0390625 3.328125 -0.375 C 2.648438 -0.800781 2.109375 -1.398438 1.703125 -2.171875 C 1.304688 -2.941406 1.109375 -3.847656 1.109375 -4.890625 C 1.109375 -5.921875 1.304688 -6.832031 1.703125 -7.625 C 2.109375 -8.414062 2.628906 -9.019531 3.265625 -9.4375 C 3.910156 -9.863281 4.601562 -10.078125 5.34375 -10.078125 C 6.5 -10.078125 7.40625 -9.679688 8.0625 -8.890625 C 8.71875 -8.109375 9.046875 -7 9.046875 -5.5625 Z M 8.4375 -5.46875 C 8.4375 -6.789062 8.160156 -7.789062 7.609375 -8.46875 C 7.066406 -9.15625 6.3125 -9.5 5.34375 -9.5 C 4.769531 -9.5 4.222656 -9.347656 3.703125 -9.046875 C 3.191406 -8.753906 2.757812 -8.300781 2.40625 -7.6875 C 2.0625 -7.070312 1.859375 -6.332031 1.796875 -5.46875 Z M 8.4375 -5.46875" transform="translate(185.047 316.764)"/></g></g></g><g><g><g><path d="M 5.515625 0.25 C 4.679688 0.25 3.925781 0.046875 3.25 -0.359375 C 2.582031 -0.773438 2.054688 -1.367188 1.671875 -2.140625 C 1.296875 -2.921875 1.109375 -3.835938 1.109375 -4.890625 C 1.109375 -5.953125 1.304688 -6.875 1.703125 -7.65625 C 2.109375 -8.445312 2.644531 -9.046875 3.3125 -9.453125 C 3.988281 -9.867188 4.722656 -10.078125 5.515625 -10.078125 C 6.128906 -10.078125 6.660156 -9.960938 7.109375 -9.734375 C 7.566406 -9.515625 7.992188 -9.21875 8.390625 -8.84375 L 7.984375 -8.390625 C 7.191406 -9.128906 6.367188 -9.5 5.515625 -9.5 C 4.816406 -9.5 4.179688 -9.300781 3.609375 -8.90625 C 3.035156 -8.519531 2.582031 -7.976562 2.25 -7.28125 C 1.925781 -6.582031 1.765625 -5.785156 1.765625 -4.890625 C 1.765625 -4.003906 1.921875 -3.210938 2.234375 -2.515625 C 2.546875 -1.828125 2.984375 -1.289062 3.546875 -0.90625 C 4.117188 -0.519531 4.773438 -0.328125 5.515625 -0.328125 C 6.503906 -0.328125 7.421875 -0.722656 8.265625 -1.515625 L 8.640625 -1.0625 C 7.671875 -0.1875 6.628906 0.25 5.515625 0.25 Z M 5.515625 0.25" transform="translate(194.881 316.764)"/></g></g></g><g><g><g><path d="M 5.46875 0.25 C 4.675781 0.25 3.945312 0.046875 3.28125 -0.359375 C 2.613281 -0.773438 2.082031 -1.375 1.6875 -2.15625 C 1.300781 -2.9375 1.109375 -3.847656 1.109375 -4.890625 C 1.109375 -5.953125 1.300781 -6.875 1.6875 -7.65625 C 2.082031 -8.445312 2.613281 -9.046875 3.28125 -9.453125 C 3.945312 -9.867188 4.675781 -10.078125 5.46875 -10.078125 C 6.269531 -10.078125 7 -9.867188 7.65625 -9.453125 C 8.320312 -9.046875 8.851562 -8.445312 9.25 -7.65625 C 9.644531 -6.875 9.84375 -5.953125 9.84375 -4.890625 C 9.84375 -3.847656 9.644531 -2.9375 9.25 -2.15625 C 8.851562 -1.375 8.320312 -0.773438 7.65625 -0.359375 C 7 0.046875 6.269531 0.25 5.46875 0.25 Z M 5.46875 -0.328125 C 6.164062 -0.328125 6.796875 -0.519531 7.359375 -0.90625 C 7.921875 -1.289062 8.363281 -1.828125 8.6875 -2.515625 C 9.007812 -3.210938 9.171875 -4.003906 9.171875 -4.890625 C 9.171875 -5.785156 9.007812 -6.582031 8.6875 -7.28125 C 8.363281 -7.976562 7.921875 -8.519531 7.359375 -8.90625 C 6.796875 -9.300781 6.164062 -9.5 5.46875 -9.5 C 4.769531 -9.5 4.140625 -9.300781 3.578125 -8.90625 C 3.015625 -8.519531 2.570312 -7.976562 2.25 -7.28125 C 1.925781 -6.582031 1.765625 -5.785156 1.765625 -4.890625 C 1.765625 -4.003906 1.925781 -3.210938 2.25 -2.515625 C 2.570312 -1.828125 3.015625 -1.289062 3.578125 -0.90625 C 4.140625 -0.519531 4.769531 -0.328125 5.46875 -0.328125 Z M 5.46875 -0.328125" transform="translate(204.056 316.764)"/></g></g></g><g><g><g><path d="M 4.78125 0.25 C 3.757812 0.25 3.007812 -0.0507812 2.53125 -0.65625 C 2.050781 -1.269531 1.8125 -2.21875 1.8125 -3.5 L 1.8125 -9.84375 L 2.421875 -9.84375 L 2.421875 -3.578125 C 2.421875 -2.460938 2.609375 -1.640625 2.984375 -1.109375 C 3.367188 -0.585938 3.976562 -0.328125 4.8125 -0.328125 C 5.414062 -0.328125 5.972656 -0.488281 6.484375 -0.8125 C 6.992188 -1.144531 7.5625 -1.695312 8.1875 -2.46875 L 8.1875 -9.84375 L 8.8125 -9.84375 L 8.8125 0 L 8.265625 0 L 8.1875 -1.6875 L 8.15625 -1.6875 C 7.613281 -1.050781 7.070312 -0.566406 6.53125 -0.234375 C 6 0.0859375 5.414062 0.25 4.78125 0.25 Z M 4.78125 0.25" transform="translate(215.001 316.764)"/></g></g></g><g><g><g><path d="M 1.96875 -9.84375 L 2.515625 -9.84375 L 2.59375 -7.984375 L 2.640625 -7.984375 C 2.992188 -8.628906 3.40625 -9.140625 3.875 -9.515625 C 4.351562 -9.890625 4.875 -10.078125 5.4375 -10.078125 C 5.789062 -10.078125 6.101562 -10.007812 6.375 -9.875 L 6.21875 -9.296875 C 6.039062 -9.367188 5.894531 -9.414062 5.78125 -9.4375 C 5.675781 -9.457031 5.53125 -9.46875 5.34375 -9.46875 C 4.851562 -9.46875 4.363281 -9.253906 3.875 -8.828125 C 3.394531 -8.398438 2.96875 -7.734375 2.59375 -6.828125 L 2.59375 0 L 1.96875 0 Z M 1.96875 -9.84375" transform="translate(225.781 316.764)"/></g></g></g><g><g><g><path d="M 5.515625 0.25 C 4.679688 0.25 3.925781 0.046875 3.25 -0.359375 C 2.582031 -0.773438 2.054688 -1.367188 1.671875 -2.140625 C 1.296875 -2.921875 1.109375 -3.835938 1.109375 -4.890625 C 1.109375 -5.953125 1.304688 -6.875 1.703125 -7.65625 C 2.109375 -8.445312 2.644531 -9.046875 3.3125 -9.453125 C 3.988281 -9.867188 4.722656 -10.078125 5.515625 -10.078125 C 6.128906 -10.078125 6.660156 -9.960938 7.109375 -9.734375 C 7.566406 -9.515625 7.992188 -9.21875 8.390625 -8.84375 L 7.984375 -8.390625 C 7.191406 -9.128906 6.367188 -9.5 5.515625 -9.5 C 4.816406 -9.5 4.179688 -9.300781 3.609375 -8.90625 C 3.035156 -8.519531 2.582031 -7.976562 2.25 -7.28125 C 1.925781 -6.582031 1.765625 -5.785156 1.765625 -4.890625 C 1.765625 -4.003906 1.921875 -3.210938 2.234375 -2.515625 C 2.546875 -1.828125 2.984375 -1.289062 3.546875 -0.90625 C 4.117188 -0.519531 4.773438 -0.328125 5.515625 -0.328125 C 6.503906 -0.328125 7.421875 -0.722656 8.265625 -1.515625 L 8.640625 -1.0625 C 7.671875 -0.1875 6.628906 0.25 5.515625 0.25 Z M 5.515625 0.25" transform="translate(232.077 316.764)"/></g></g></g><g><g><g><path d="M 9.046875 -5.5625 C 9.046875 -5.28125 9.035156 -5.054688 9.015625 -4.890625 L 1.765625 -4.890625 C 1.765625 -3.972656 1.929688 -3.164062 2.265625 -2.46875 C 2.609375 -1.78125 3.070312 -1.25 3.65625 -0.875 C 4.25 -0.507812 4.910156 -0.328125 5.640625 -0.328125 C 6.609375 -0.328125 7.515625 -0.628906 8.359375 -1.234375 L 8.640625 -0.703125 C 8.128906 -0.398438 7.65625 -0.164062 7.21875 0 C 6.789062 0.164062 6.25 0.25 5.59375 0.25 C 4.769531 0.25 4.015625 0.0390625 3.328125 -0.375 C 2.648438 -0.800781 2.109375 -1.398438 1.703125 -2.171875 C 1.304688 -2.941406 1.109375 -3.847656 1.109375 -4.890625 C 1.109375 -5.921875 1.304688 -6.832031 1.703125 -7.625 C 2.109375 -8.414062 2.628906 -9.019531 3.265625 -9.4375 C 3.910156 -9.863281 4.601562 -10.078125 5.34375 -10.078125 C 6.5 -10.078125 7.40625 -9.679688 8.0625 -8.890625 C 8.71875 -8.109375 9.046875 -7 9.046875 -5.5625 Z M 8.4375 -5.46875 C 8.4375 -6.789062 8.160156 -7.789062 7.609375 -8.46875 C 7.066406 -9.15625 6.3125 -9.5 5.34375 -9.5 C 4.769531 -9.5 4.222656 -9.347656 3.703125 -9.046875 C 3.191406 -8.753906 2.757812 -8.300781 2.40625 -7.6875 C 2.0625 -7.070312 1.859375 -6.332031 1.796875 -5.46875 Z M 8.4375 -5.46875" transform="translate(241.252 316.764)"/></g></g></g><g><g><g><path d="M 4.28125 0.25 C 3.582031 0.25 2.929688 0.125 2.328125 -0.125 C 1.722656 -0.375 1.179688 -0.703125 0.703125 -1.109375 L 1.109375 -1.609375 C 1.585938 -1.191406 2.070312 -0.875 2.5625 -0.65625 C 3.0625 -0.4375 3.648438 -0.328125 4.328125 -0.328125 C 5.109375 -0.328125 5.71875 -0.53125 6.15625 -0.9375 C 6.601562 -1.34375 6.828125 -1.835938 6.828125 -2.421875 C 6.828125 -3.015625 6.601562 -3.476562 6.15625 -3.8125 C 5.71875 -4.15625 5.117188 -4.460938 4.359375 -4.734375 C 3.660156 -4.984375 3.101562 -5.207031 2.6875 -5.40625 C 2.269531 -5.601562 1.910156 -5.875 1.609375 -6.21875 C 1.304688 -6.570312 1.15625 -7.007812 1.15625 -7.53125 C 1.15625 -8.25 1.425781 -8.851562 1.96875 -9.34375 C 2.519531 -9.832031 3.273438 -10.078125 4.234375 -10.078125 C 4.710938 -10.078125 5.195312 -9.988281 5.6875 -9.8125 C 6.175781 -9.632812 6.597656 -9.394531 6.953125 -9.09375 L 6.578125 -8.609375 C 6.203125 -8.890625 5.828125 -9.109375 5.453125 -9.265625 C 5.078125 -9.421875 4.660156 -9.5 4.203125 -9.5 C 3.429688 -9.5 2.835938 -9.3125 2.421875 -8.9375 C 2.015625 -8.5625 1.8125 -8.109375 1.8125 -7.578125 C 1.8125 -7.203125 1.921875 -6.882812 2.140625 -6.625 C 2.359375 -6.375 2.617188 -6.171875 2.921875 -6.015625 C 3.234375 -5.859375 3.660156 -5.675781 4.203125 -5.46875 C 4.328125 -5.414062 4.726562 -5.265625 5.40625 -5.015625 C 6.09375 -4.773438 6.609375 -4.441406 6.953125 -4.015625 C 7.304688 -3.585938 7.484375 -3.070312 7.484375 -2.46875 C 7.484375 -1.976562 7.359375 -1.523438 7.109375 -1.109375 C 6.859375 -0.703125 6.488281 -0.375 6 -0.125 C 5.507812 0.125 4.9375 0.25 4.28125 0.25 Z M 4.28125 0.25" transform="translate(251.086 316.764)"/></g></g></g><g><g><g><path d="M 3.226562 0 L 7.367188 0 C 7.558594 0 7.683594 -0.125 7.683594 -0.316406 L 7.683594 -8.253906 C 7.683594 -8.441406 7.8125 -8.570312 8 -8.570312 L 17.296875 -8.570312 C 17.488281 -8.570312 17.613281 -8.441406 17.613281 -8.253906 L 17.613281 -0.316406 C 17.613281 -0.125 17.738281 0 17.929688 0 L 22.105469 0 C 22.292969 0 22.421875 -0.125 22.421875 -0.316406 L 22.421875 -22.230469 C 22.421875 -22.421875 22.292969 -22.546875 22.105469 -22.546875 L 17.929688 -22.546875 C 17.738281 -22.546875 17.613281 -22.421875 17.613281 -22.230469 L 17.613281 -13.15625 C 17.613281 -12.964844 17.488281 -12.839844 17.296875 -12.839844 L 8 -12.839844 C 7.8125 -12.839844 7.683594 -12.964844 7.683594 -13.15625 L 7.683594 -22.230469 C 7.683594 -22.421875 7.558594 -22.546875 7.367188 -22.546875 L 3.226562 -22.546875 C 3.035156 -22.546875 2.910156 -22.421875 2.910156 -22.230469 L 2.910156 -0.316406 C 2.910156 -0.125 3.035156 0 3.226562 0 Z M 3.226562 0" transform="translate(94.391 282.495)"/></g></g></g><g><g><g><path d="M 14.199219 0.09375 C 20.710938 0.09375 25.457031 -4.773438 25.457031 -11.289062 C 25.457031 -17.804688 20.710938 -22.640625 14.199219 -22.640625 C 7.683594 -22.640625 2.910156 -17.804688 2.910156 -11.289062 C 2.910156 -4.773438 7.683594 0.09375 14.199219 0.09375 Z M 14.199219 -4.175781 C 10.75 -4.175781 7.683594 -6.609375 7.683594 -11.289062 C 7.683594 -15.96875 10.75 -18.371094 14.199219 -18.371094 C 17.613281 -18.371094 20.648438 -15.96875 20.648438 -11.289062 C 20.648438 -6.609375 17.613281 -4.175781 14.199219 -4.175781 Z M 14.199219 -4.175781" transform="translate(120.383 282.495)"/></g></g></g><g><g><g><path d="M 3.226562 0 L 7.367188 0 C 7.558594 0 7.683594 -0.125 7.683594 -0.316406 L 7.683594 -11.003906 C 7.683594 -11.289062 7.90625 -11.351562 8.0625 -11.132812 L 14.167969 -1.929688 C 14.292969 -1.738281 14.484375 -1.738281 14.609375 -1.929688 L 20.746094 -11.164062 C 20.902344 -11.382812 21.125 -11.289062 21.125 -11.003906 L 21.125 -0.316406 C 21.125 -0.125 21.25 0 21.441406 0 L 25.613281 0 C 25.804688 0 25.929688 -0.125 25.929688 -0.316406 L 25.929688 -22.230469 C 25.929688 -22.421875 25.804688 -22.546875 25.613281 -22.546875 L 23.273438 -22.546875 C 23.117188 -22.546875 22.957031 -22.515625 22.863281 -22.355469 L 14.609375 -9.488281 C 14.484375 -9.296875 14.292969 -9.296875 14.167969 -9.488281 L 5.945312 -22.355469 C 5.851562 -22.515625 5.691406 -22.546875 5.535156 -22.546875 L 3.226562 -22.546875 C 3.035156 -22.546875 2.910156 -22.421875 2.910156 -22.230469 L 2.910156 -0.316406 C 2.910156 -0.125 3.035156 0 3.226562 0 Z M 3.226562 0" transform="translate(149.095 282.495)"/></g></g></g><g><g><g><path d="M 2.910156 0 L 16.476562 0 C 16.664062 0 16.792969 -0.125 16.792969 -0.316406 L 16.792969 -3.953125 C 16.792969 -4.140625 16.664062 -4.269531 16.476562 -4.269531 L 7.683594 -4.269531 C 7.496094 -4.269531 7.367188 -4.394531 7.367188 -4.585938 L 7.367188 -8.632812 C 7.367188 -8.824219 7.496094 -8.949219 7.683594 -8.949219 L 13.789062 -8.949219 C 13.976562 -8.949219 14.105469 -9.074219 14.105469 -9.265625 L 14.105469 -12.902344 C 14.105469 -13.089844 13.976562 -13.21875 13.789062 -13.21875 L 7.683594 -13.21875 C 7.496094 -13.21875 7.367188 -13.34375 7.367188 -13.535156 L 7.367188 -17.960938 C 7.367188 -18.152344 7.496094 -18.277344 7.683594 -18.277344 L 16.160156 -18.277344 C 16.347656 -18.277344 16.476562 -18.402344 16.476562 -18.59375 L 16.476562 -22.230469 C 16.476562 -22.421875 16.347656 -22.546875 16.160156 -22.546875 L 2.910156 -22.546875 C 2.71875 -22.546875 2.59375 -22.421875 2.59375 -22.230469 L 2.59375 -0.316406 C 2.59375 -0.125 2.71875 0 2.910156 0 Z M 2.910156 0" transform="translate(178.28 282.495)"/></g></g></g><g><g><g><path d="M 2.910156 0 L 15.335938 0 C 15.527344 0 15.652344 -0.125 15.652344 -0.316406 L 15.652344 -3.953125 C 15.652344 -4.140625 15.527344 -4.269531 15.335938 -4.269531 L 7.683594 -4.269531 C 7.496094 -4.269531 7.367188 -4.394531 7.367188 -4.585938 L 7.367188 -22.230469 C 7.367188 -22.421875 7.242188 -22.546875 7.050781 -22.546875 L 2.910156 -22.546875 C 2.71875 -22.546875 2.59375 -22.421875 2.59375 -22.230469 L 2.59375 -0.316406 C 2.59375 -0.125 2.71875 0 2.910156 0 Z M 2.910156 0" transform="translate(212.015 282.495)"/></g></g></g><g><g><g><path d="M 2.910156 0 L 7.050781 0 C 7.242188 0 7.367188 -0.125 7.367188 -0.316406 L 7.367188 -22.230469 C 7.367188 -22.421875 7.242188 -22.546875 7.050781 -22.546875 L 2.910156 -22.546875 C 2.71875 -22.546875 2.59375 -22.421875 2.59375 -22.230469 L 2.59375 -0.316406 C 2.59375 -0.125 2.71875 0 2.910156 0 Z M 2.910156 0" transform="translate(230.956 282.495)"/></g></g></g><g><g><g><path d="M 3.226562 0 L 7.367188 0 C 7.558594 0 7.683594 -0.125 7.683594 -0.316406 L 7.683594 -7.90625 C 7.683594 -8.09375 7.8125 -8.222656 8 -8.222656 L 13.472656 -8.222656 C 13.660156 -8.222656 13.789062 -8.347656 13.789062 -8.539062 L 13.789062 -12.175781 C 13.789062 -12.363281 13.660156 -12.492188 13.472656 -12.492188 L 8 -12.492188 C 7.8125 -12.492188 7.683594 -12.617188 7.683594 -12.808594 L 7.683594 -17.960938 C 7.683594 -18.152344 7.8125 -18.277344 8 -18.277344 L 16.664062 -18.277344 C 16.855469 -18.277344 16.980469 -18.402344 16.980469 -18.59375 L 16.980469 -22.230469 C 16.980469 -22.421875 16.855469 -22.546875 16.664062 -22.546875 L 3.226562 -22.546875 C 3.035156 -22.546875 2.910156 -22.421875 2.910156 -22.230469 L 2.910156 -0.316406 C 2.910156 -0.125 3.035156 0 3.226562 0 Z M 3.226562 0" transform="translate(241.612 282.495)"/></g></g></g><g><g><g><path d="M 2.910156 0 L 16.476562 0 C 16.664062 0 16.792969 -0.125 16.792969 -0.316406 L 16.792969 -3.953125 C 16.792969 -4.140625 16.664062 -4.269531 16.476562 -4.269531 L 7.683594 -4.269531 C 7.496094 -4.269531 7.367188 -4.394531 7.367188 -4.585938 L 7.367188 -8.632812 C 7.367188 -8.824219 7.496094 -8.949219 7.683594 -8.949219 L 13.789062 -8.949219 C 13.976562 -8.949219 14.105469 -9.074219 14.105469 -9.265625 L 14.105469 -12.902344 C 14.105469 -13.089844 13.976562 -13.21875 13.789062 -13.21875 L 7.683594 -13.21875 C 7.496094 -13.21875 7.367188 -13.34375 7.367188 -13.535156 L 7.367188 -17.960938 C 7.367188 -18.152344 7.496094 -18.277344 7.683594 -18.277344 L 16.160156 -18.277344 C 16.347656 -18.277344 16.476562 -18.402344 16.476562 -18.59375 L 16.476562 -22.230469 C 16.476562 -22.421875 16.347656 -22.546875 16.160156 -22.546875 L 2.910156 -22.546875 C 2.71875 -22.546875 2.59375 -22.421875 2.59375 -22.230469 L 2.59375 -0.316406 C 2.59375 -0.125 2.71875 0 2.910156 0 Z M 2.910156 0" transform="translate(261.85 282.495)"/></g></g></g><path d="M 261.816406 293.984375 L 108.34375 293.984375 L 108.34375 295.269531 L 267.253906 295.269531 L 267.253906 293.984375 L 261.816406 293.984375"/><g clip-path="url(#a)"><path d="M 187.714844 43.480469 C 242.058594 43.480469 286.265625 87.6875 286.265625 142.03125 C 286.265625 196.375 242.058594 240.582031 187.714844 240.582031 C 133.371094 240.582031 89.164062 196.375 89.164062 142.03125 C 89.164062 87.6875 133.371094 43.480469 187.714844 43.480469 M 187.714844 32.53125 C 127.238281 32.53125 78.214844 81.554688 78.214844 142.03125 C 78.214844 202.507812 127.238281 251.53125 187.714844 251.53125 C 248.191406 251.53125 297.214844 202.507812 297.214844 142.03125 C 297.214844 81.554688 248.191406 32.53125 187.714844 32.53125 Z M 187.714844 32.53125"/></g><g><g><g><path d="M 12.4375 0 L 28.414062 0 C 29.144531 0 29.632812 -0.488281 29.632812 -1.21875 L 29.632812 -31.828125 C 29.632812 -32.5625 30.121094 -33.046875 30.851562 -33.046875 L 66.707031 -33.046875 C 67.4375 -33.046875 67.925781 -32.5625 67.925781 -31.828125 L 67.925781 -1.21875 C 67.925781 -0.488281 68.414062 0 69.144531 0 L 85.242188 0 C 85.976562 0 86.460938 -0.488281 86.460938 -1.21875 L 86.460938 -85.730469 C 86.460938 -86.460938 85.976562 -86.949219 85.242188 -86.949219 L 69.144531 -86.949219 C 68.414062 -86.949219 67.925781 -86.460938 67.925781 -85.730469 L 67.925781 -50.730469 C 67.925781 -50 67.4375 -49.511719 66.707031 -49.511719 L 30.851562 -49.511719 C 30.121094 -49.511719 29.632812 -50 29.632812 -50.730469 L 29.632812 -85.730469 C 29.632812 -86.460938 29.144531 -86.949219 28.414062 -86.949219 L 12.4375 -86.949219 C 11.707031 -86.949219 11.21875 -86.460938 11.21875 -85.730469 L 11.21875 -1.21875 C 11.21875 -0.488281 11.707031 0 12.4375 0 Z M 12.4375 0" transform="translate(106.184 189.642)"/></g></g></g><g><g><g><path d="M 11.21875 0 L 59.144531 0 C 59.878906 0 60.367188 -0.488281 60.367188 -1.21875 L 60.367188 -15.242188 C 60.367188 -15.976562 59.878906 -16.464844 59.144531 -16.464844 L 29.632812 -16.464844 C 28.902344 -16.464844 28.414062 -16.949219 28.414062 -17.683594 L 28.414062 -85.730469 C 28.414062 -86.460938 27.925781 -86.949219 27.195312 -86.949219 L 11.21875 -86.949219 C 10.488281 -86.949219 10 -86.460938 10 -85.730469 L 10 -1.21875 C 10 -0.488281 10.488281 0 11.21875 0 Z M 11.21875 0" transform="translate(201.301 189.642)"/></g></g></g></svg>